<svg width="159" height="18" viewBox="0 0 159 18" fill="none" xmlns="http://www.w3.org/2000/svg">
<path d="M10.728 4.51199V16.8H5.424V4.51199H-1.90735e-06V0.287987H16.128V4.51199H10.728ZM18.5443 0.287987H32.8243V4.24799H23.8483V6.52799H31.5283V10.32H23.8483V12.84H32.9923V16.8H18.5443V0.287987ZM43.7366 -1.33514e-05C46.1846 -1.33514e-05 48.1206 0.615987 49.5446 1.84799C50.9686 3.06399 51.6806 4.80799 51.6806 7.07999H46.6166C46.6166 6.11999 46.3606 5.35999 45.8486 4.79999C45.3526 4.23999 44.6406 3.95999 43.7126 3.95999C42.6406 3.95999 41.8486 4.29599 41.3366 4.96799C40.8406 5.63999 40.5926 6.57599 40.5926 7.77599V9.31199C40.5926 10.496 40.8406 11.432 41.3366 12.12C41.8486 12.792 42.6246 13.128 43.6646 13.128C44.6886 13.128 45.4646 12.864 45.9926 12.336C46.5206 11.808 46.7846 11.064 46.7846 10.104H51.6806C51.6806 12.36 50.9846 14.088 49.5926 15.288C48.2166 16.488 46.2646 17.088 43.7366 17.088C40.9206 17.088 38.7846 16.368 37.3286 14.928C35.8886 13.488 35.1686 11.36 35.1686 8.54399C35.1686 5.72799 35.8886 3.59999 37.3286 2.15999C38.7846 0.719987 40.9206 -1.33514e-05 43.7366 -1.33514e-05ZM65.6803 16.8V10.536H59.8483V16.8H54.5443V0.287987H59.8483V6.31199H65.6803V0.287987H70.9843V16.8H65.6803ZM94.3367 16.8L87.4007 8.78399V16.8H82.5287V0.287987H87.1607L94.0967 8.42399V0.287987H98.9687V16.8H94.3367ZM102.521 0.287987H116.801V4.24799H107.825V6.52799H115.505V10.32H107.825V12.84H116.969V16.8H102.521V0.287987ZM132.249 16.8L130.113 6.74399H130.017L127.881 16.8H122.049L118.185 0.287987H123.705L125.601 9.64799H125.697L127.569 0.287987H132.801L134.793 9.64799H134.889L136.665 0.287987H141.945L138.081 16.8H132.249ZM150.777 -1.33514e-05C152.889 -1.33514e-05 154.625 0.431987 155.985 1.29599C157.345 2.14399 158.041 3.40799 158.073 5.08799V5.37599H153.105V5.27999C153.105 4.79999 152.929 4.39999 152.577 4.07999C152.225 3.75999 151.689 3.59999 150.969 3.59999C150.265 3.59999 149.721 3.70399 149.337 3.91199C148.969 4.11999 148.785 4.37599 148.785 4.67999C148.785 5.11199 149.041 5.43199 149.553 5.63999C150.065 5.84799 150.889 6.06399 152.025 6.28799C153.353 6.55999 154.441 6.84799 155.289 7.15199C156.153 7.43999 156.905 7.91999 157.545 8.59199C158.185 9.26399 158.513 10.176 158.529 11.328C158.529 13.28 157.865 14.728 156.537 15.672C155.225 16.616 153.465 17.088 151.257 17.088C148.681 17.088 146.673 16.656 145.233 15.792C143.809 14.928 143.097 13.4 143.097 11.208H148.113C148.113 12.04 148.329 12.6 148.761 12.888C149.193 13.16 149.865 13.296 150.777 13.296C151.449 13.296 152.001 13.224 152.433 13.08C152.881 12.936 153.105 12.64 153.105 12.192C153.105 11.792 152.857 11.496 152.361 11.304C151.881 11.096 151.089 10.88 149.985 10.656C148.641 10.368 147.529 10.072 146.649 9.76799C145.769 9.44799 145.001 8.92799 144.345 8.20799C143.689 7.48799 143.361 6.51199 143.361 5.27999C143.361 3.47199 144.057 2.14399 145.449 1.29599C146.857 0.431987 148.633 -1.33514e-05 150.777 -1.33514e-05Z" fill="#60A5FA"/>
</svg>
