<svg width="13" height="11" viewBox="0 0 13 11" fill="none" xmlns="http://www.w3.org/2000/svg">
<path d="M12.2806 5.78318L7.78063 10.2832C7.63973 10.4241 7.44863 10.5032 7.24938 10.5032C7.05012 10.5032 6.85902 10.4241 6.71813 10.2832C6.57723 10.1423 6.49807 9.95118 6.49807 9.75193C6.49807 9.55267 6.57723 9.36157 6.71813 9.22068L9.9375 6.00255H0.75C0.551088 6.00255 0.360322 5.92353 0.21967 5.78288C0.0790177 5.64223 0 5.45146 0 5.25255C0 5.05364 0.0790177 4.86287 0.21967 4.72222C0.360322 4.58157 0.551088 4.50255 0.75 4.50255H9.9375L6.71937 1.28255C6.57848 1.14165 6.49932 0.950558 6.49932 0.751301C6.49932 0.552043 6.57848 0.360947 6.71937 0.220051C6.86027 0.0791546 7.05137 2.09952e-09 7.25062 0C7.44988 -2.09952e-09 7.64098 0.0791546 7.78187 0.220051L12.2819 4.72005C12.3518 4.78982 12.4073 4.87272 12.4451 4.96399C12.4829 5.05525 12.5023 5.15309 12.5022 5.25187C12.502 5.35066 12.4824 5.44845 12.4444 5.53962C12.4064 5.6308 12.3507 5.71357 12.2806 5.78318Z" fill="#CBD5E1"/>
</svg>
